<?xml version="1.0" standalone="no"?>
<!DOCTYPE svg PUBLIC "-//W3C//DTD SVG 20010904//EN"
 "http://www.w3.org/TR/2001/REC-SVG-20010904/DTD/svg10.dtd">
<svg version="1.0" xmlns="http://www.w3.org/2000/svg"
 width="623.000000pt" height="623.000000pt" viewBox="0 0 623.000000 623.000000"
 preserveAspectRatio="xMidYMid meet">
<metadata>
Created by potrace 1.14, written by Peter Selinger 2001-2017
</metadata>
<g transform="translate(0.000000,623.000000) scale(0.100000,-0.100000)"
fill="#000000" stroke="none">
<path d="M0 3115 l0 -3115 3115 0 3115 0 0 3115 0 3115 -3115 0 -3115 0 0
-3115z m3331 2796 c340 -73 613 -240 802 -492 121 -162 203 -334 240 -508 25
-119 29 -378 8 -486 -55 -277 -202 -515 -429 -697 l-74 -58 -151 153 c-84 85
-179 170 -213 192 l-60 38 87 86 c94 94 173 215 211 324 33 96 37 287 9 392
-57 207 -168 344 -362 445 -115 60 -228 84 -364 77 -280 -14 -485 -135 -598
-355 -58 -112 -77 -193 -77 -333 0 -175 55 -339 166 -489 64 -87 498 -553 973
-1045 109 -112 645 -683 756 -805 28 -30 116 -125 195 -210 80 -85 217 -234
305 -330 88 -96 210 -228 270 -294 61 -65 132 -144 159 -175 27 -31 127 -140
224 -243 96 -103 180 -196 187 -205 10 -16 -23 -51 -273 -293 l-285 -274 -151
154 c-83 85 -333 346 -556 580 -222 234 -463 486 -535 560 -71 74 -281 294
-465 489 -184 195 -506 532 -715 750 -708 738 -704 733 -796 882 -127 205
-193 431 -206 701 -14 324 68 625 245 893 74 113 134 179 243 270 152 127 333
223 524 278 79 23 135 34 250 51 78 11 363 -3 456 -23z m1442 -1910 c152 -174
223 -279 323 -481 88 -177 149 -373 178 -571 21 -143 22 -499 1 -648 -20 -140
-76 -367 -116 -473 l-32 -82 -17 84 c-41 199 -134 380 -303 594 l-79 98 -2
212 c-3 223 -11 283 -63 456 -30 101 -106 257 -175 359 l-50 74 40 86 c62 134
122 346 122 431 l0 31 48 -40 c26 -22 82 -80 125 -130z m-3458 -98 c20 -145
139 -409 249 -557 l64 -85 -50 -68 c-141 -193 -222 -475 -217 -753 3 -103 3
-106 25 -106 19 0 21 3 12 14 -16 19 -20 52 -7 52 6 0 9 -9 6 -20 -3 -11 -1
-18 4 -14 5 3 9 14 9 25 0 11 4 18 8 15 4 -2 9 3 10 12 1 9 4 26 6 37 2 11 5
22 5 24 1 2 7 -1 14 -7 7 -6 18 -7 26 -3 10 7 9 10 -8 16 -11 3 -21 11 -21 16
0 6 4 8 9 4 5 -3 12 -1 16 5 5 9 -6 14 -26 12 -3 -1 -6 5 -6 13 0 10 8 8 30
-7 17 -12 27 -16 22 -8 -6 10 -4 12 8 7 12 -4 15 -1 12 15 -5 22 18 62 28 51
4 -3 7 -1 7 7 0 10 4 10 18 -1 15 -13 16 -12 3 4 -11 14 -11 20 0 34 12 15 12
16 -3 10 -23 -8 -23 -4 2 18 15 14 19 15 15 4 -6 -16 30 -24 40 -9 3 5 12 7
20 3 11 -4 13 -1 9 11 -4 12 -11 13 -24 6 -14 -7 -18 -6 -16 5 1 8 6 18 11 22
4 5 5 2 0 -6 -6 -11 -4 -13 8 -8 9 3 19 2 22 -3 4 -6 12 -10 18 -10 9 0 9 2 0
8 -20 13 -4 63 20 61 9 0 8 -2 -1 -6 -6 -2 -9 -9 -6 -14 3 -6 12 -5 22 3 10 8
13 9 9 1 -11 -17 10 -26 30 -13 15 9 14 10 -6 4 -17 -4 -21 -3 -16 6 4 7 3 15
-3 19 -7 4 -4 11 9 20 12 7 18 8 14 2 -3 -6 -1 -11 4 -11 10 0 15 12 13 30 0
3 8 6 19 6 13 0 18 -5 14 -15 -4 -11 -3 -12 10 -1 8 7 12 16 10 21 -3 4 4 13
15 19 11 6 20 8 20 6 0 -3 12 -1 26 4 16 7 23 7 19 0 -3 -6 -13 -10 -21 -10
-9 0 -14 -6 -11 -12 2 -7 -13 -40 -32 -73 -70 -116 -121 -314 -121 -470 0 -97
24 -244 55 -340 81 -248 281 -472 530 -598 184 -92 353 -131 565 -131 271 0
447 54 679 205 33 22 34 22 22 2 -14 -28 -88 -91 -128 -111 -18 -9 -33 -20
-33 -24 0 -5 4 -7 8 -4 5 3 8 -5 8 -16 -1 -17 5 -22 24 -22 14 -1 36 -9 49
-18 13 -9 29 -14 34 -11 6 3 7 1 3 -5 -3 -6 -2 -13 3 -16 5 -3 7 -14 4 -25 -3
-12 2 -20 16 -24 12 -3 21 -13 20 -24 -1 -17 -2 -17 -6 0 -3 11 -11 16 -19 13
-15 -6 -28 10 -29 34 0 8 -6 14 -12 13 -7 -2 -13 2 -13 8 0 6 7 8 18 4 12 -4
14 -3 6 5 -24 24 -84 14 -68 -11 8 -13 25 0 19 14 -3 7 0 4 7 -7 31 -45 60
-76 68 -71 5 3 10 0 12 -7 2 -6 14 -12 26 -13 13 -1 18 3 14 9 -3 6 -7 17 -9
25 -1 10 1 11 10 2 6 -6 12 -22 13 -36 1 -21 -8 -29 -60 -54 -270 -127 -609
-169 -926 -115 -236 41 -511 158 -715 304 -22 15 -44 26 -49 23 -5 -4 -6 -1
-3 4 8 14 -103 110 -136 118 -18 5 -24 12 -22 26 2 10 0 21 -5 24 -4 3 -7 -3
-5 -12 1 -10 0 -22 -4 -28 -9 -17 -10 -35 0 -29 8 5 13 -9 10 -29 -1 -4 6 -10
14 -13 13 -5 13 -9 3 -22 -9 -11 -10 -14 -1 -9 9 6 11 -2 9 -28 -1 -20 2 -39
7 -42 6 -3 7 -1 3 5 -4 7 -3 12 3 12 5 0 8 9 6 19 -3 15 1 18 12 14 11 -4 14
-2 9 5 -10 17 -1 15 14 -4 8 -8 9 -14 4 -13 -20 4 -31 -2 -31 -16 0 -8 7 -15
14 -15 8 0 11 5 8 10 -3 6 -2 10 3 10 6 0 13 -7 16 -16 3 -8 2 -12 -3 -9 -22
13 -23 -20 -1 -37 30 -24 43 -23 29 3 -9 17 -8 20 2 14 9 -6 11 -3 6 9 -4 10
-3 15 4 11 5 -4 7 -16 3 -28 -3 -12 -3 -19 1 -14 10 9 46 -23 39 -34 -3 -5
-11 -6 -17 -2 -17 10 -49 15 -44 6 9 -15 -13 -54 -25 -47 -9 6 -9 3 1 -9 7 -9
17 -15 21 -12 5 3 12 0 16 -6 4 -8 3 -9 -4 -5 -7 4 -12 2 -12 -3 0 -6 9 -11
20 -11 11 0 19 6 18 13 -2 6 5 11 15 11 16 -2 22 8 18 29 -1 5 3 6 9 2 7 -4 7
-12 0 -25 -7 -13 -6 -21 4 -29 7 -6 15 -10 17 -8 2 1 3 0 2 -2 -2 -2 3 -11 9
-20 7 -9 1 -6 -13 7 -30 26 -44 28 -34 5 5 -15 4 -16 -6 -5 -7 6 -18 12 -24
12 -5 0 -3 -4 5 -10 8 -5 11 -12 7 -16 -4 -4 -15 1 -26 10 -14 13 -21 14 -27
5 -4 -7 -3 -10 3 -6 6 4 16 0 23 -9 7 -8 19 -13 27 -10 7 3 13 0 13 -7 0 -7 3
-8 8 -2 4 6 13 11 21 13 12 3 12 0 2 -12 -9 -11 -10 -20 -1 -36 6 -12 14 -19
17 -16 3 3 12 -2 19 -12 11 -16 14 -16 35 3 13 11 18 13 11 4 -6 -9 -8 -20 -4
-24 4 -5 2 -5 -4 -2 -8 4 -11 -3 -10 -22 0 -20 5 -27 14 -23 11 4 11 6 0 13
-10 7 -9 9 4 9 12 0 16 6 13 21 -3 17 -2 19 10 9 8 -6 11 -18 8 -27 -4 -11 -2
-14 8 -11 8 3 15 10 15 16 3 22 4 23 15 17 7 -5 5 -13 -5 -24 -13 -14 -13 -20
-3 -31 8 -9 8 -11 0 -6 -6 3 -14 2 -17 -3 -4 -5 3 -12 14 -16 11 -3 19 -11 17
-18 -1 -6 9 -13 22 -15 14 -2 21 0 17 7 -4 5 -12 9 -19 7 -7 -1 -9 -1 -4 1 4
3 4 10 1 15 -5 7 -2 8 6 3 8 -5 11 -3 8 6 -3 8 -11 13 -17 11 -7 -1 -9 2 -6 8
5 8 13 6 24 -4 10 -9 20 -13 24 -10 4 4 4 -4 2 -16 -3 -13 1 -30 8 -39 10 -12
9 -13 -2 -6 -10 5 -12 4 -7 -4 6 -9 11 -9 22 0 7 6 11 15 8 20 -3 5 2 6 10 3
19 -7 21 -20 4 -30 -7 -5 -8 -3 -3 6 5 9 4 11 -4 6 -9 -6 -9 -11 1 -23 11 -14
10 -15 -12 -8 -14 4 -29 12 -35 19 -5 6 -21 12 -35 14 -24 2 -24 2 -5 -10 11
-7 23 -13 28 -14 4 -1 10 -2 14 -3 4 0 -1 -7 -12 -14 -14 -11 -15 -16 -5 -22
9 -6 11 -4 5 5 -6 10 -4 12 9 7 10 -4 15 -3 11 3 -7 12 15 13 31 2 6 -4 10
-15 8 -24 -1 -10 3 -21 8 -25 6 -3 8 -1 4 5 -9 15 10 24 22 9 5 -6 8 -20 7
-29 -2 -10 0 -20 5 -23 4 -2 7 5 6 17 0 12 5 23 13 26 9 3 11 0 6 -8 -5 -9 -4
-11 3 -6 7 4 12 2 12 -4 0 -6 5 -8 12 -4 7 5 9 2 6 -7 -4 -11 6 -14 49 -13 30
1 50 -2 43 -6 -6 -4 -12 -11 -12 -16 0 -5 -4 -8 -9 -7 -4 2 -6 -4 -3 -12 5
-13 8 -13 21 0 8 8 19 15 24 15 6 0 8 4 4 9 -3 5 -1 12 4 15 11 7 9 -13 -3
-32 -7 -12 -4 -12 15 -1 21 11 22 10 12 -2 -10 -12 -8 -15 6 -15 13 0 17 7 15
23 -1 13 2 21 6 18 5 -3 7 -12 3 -20 -3 -8 0 -15 7 -15 6 0 8 -5 4 -11 -4 -8
1 -9 17 -4 13 4 21 4 17 0 -11 -11 11 -47 24 -39 8 5 7 10 -3 18 -8 6 -14 18
-14 26 0 8 -6 16 -12 16 -23 2 -24 4 -18 15 5 7 12 6 23 -4 10 -8 25 -13 35
-12 9 2 14 -1 11 -7 -4 -6 0 -14 7 -19 11 -7 11 -9 1 -9 -10 0 -10 -4 0 -22 7
-13 12 -26 11 -29 -1 -3 4 -6 12 -6 8 0 11 5 8 11 -4 6 -8 19 -8 28 -1 13 2
15 11 7 8 -7 14 -6 17 3 4 9 6 9 6 1 1 -6 -4 -15 -9 -18 -6 -4 -4 -12 5 -22
14 -14 18 -14 35 2 11 10 20 14 20 10 0 -5 6 -1 13 10 11 14 16 15 22 5 5 -9
4 -11 -3 -6 -8 5 -10 -2 -5 -25 4 -23 3 -30 -6 -25 -6 4 -9 11 -6 16 3 4 -3 7
-12 6 -9 -2 -19 -9 -21 -17 -3 -10 -1 -11 5 -2 7 10 13 8 25 -6 9 -11 13 -23
10 -27 -4 -4 -1 -4 6 0 7 4 10 12 7 17 -4 5 1 9 10 9 10 0 14 -5 9 -12 -5 -10
-4 -10 6 -1 10 9 10 15 -4 28 -9 9 -16 19 -16 22 0 4 3 3 6 0 4 -3 15 -2 25 3
12 7 20 6 25 -2 4 -6 3 -8 -2 -5 -6 3 -16 2 -24 -4 -13 -7 -12 -9 3 -9 9 0 20
0 23 1 4 0 11 -5 15 -13 7 -9 8 -7 7 9 -2 12 1 22 7 22 13 1 13 -42 0 -52 -5
-5 0 -5 13 -2 16 5 22 3 20 -7 -2 -8 7 -13 22 -13 14 0 30 -4 37 -8 13 -8 20
1 17 21 -1 6 -2 17 -3 22 0 6 -5 10 -11 10 -5 0 -9 -5 -7 -11 1 -6 -6 -13 -16
-14 -9 -2 -15 1 -12 6 4 5 -1 6 -9 3 -9 -3 -16 -1 -16 6 0 6 -4 8 -10 5 -5 -3
-10 -1 -10 4 0 6 7 11 15 11 8 0 15 -6 15 -12 0 -9 4 -8 10 2 7 11 10 11 10 2
0 -7 5 -10 11 -7 7 5 2 16 -13 33 -13 14 -16 21 -8 16 8 -5 18 -9 23 -9 4 0 7
-4 6 -9 -1 -13 51 -44 70 -41 9 1 15 7 14 13 -3 15 25 23 33 10 4 -6 3 -8 -2
-5 -6 3 -16 -3 -23 -15 -11 -18 -10 -19 11 -13 22 7 22 6 4 -7 -10 -8 -16 -20
-12 -26 11 -18 24 -14 31 8 3 11 9 19 13 19 4 -1 9 0 12 1 19 7 39 7 34 -1 -3
-5 -1 -9 4 -9 6 0 13 7 16 16 3 8 11 12 17 8 7 -4 17 0 23 8 10 13 13 13 24 2
13 -14 4 -20 -23 -14 -5 1 -7 -2 -3 -6 4 -4 3 -13 -3 -20 -7 -8 -7 -14 1 -19
5 -3 10 1 10 10 0 10 5 13 12 9 7 -4 8 -3 4 4 -8 14 29 11 41 -3 5 -4 2 -5 -4
-1 -7 4 -13 2 -13 -4 0 -7 8 -9 20 -5 15 5 18 2 15 -15 -4 -19 -2 -20 11 -9
21 17 51 21 59 9 4 -6 11 -8 16 -4 7 4 6 10 0 18 -6 7 -13 23 -15 37 -5 26 -5
26 -8 36 -2 3 5 7 15 9 15 2 16 0 6 -12 -6 -8 -9 -15 -5 -15 13 -3 26 -7 31
-9 14 -7 31 -5 44 4 11 8 13 8 7 -2 -5 -8 -1 -12 11 -13 11 0 13 -3 5 -6 -6
-2 -10 -9 -7 -13 3 -5 1 -11 -5 -15 -9 -6 -15 8 -11 29 1 5 -5 3 -14 -4 -10
-8 -19 -10 -23 -4 -4 5 -14 10 -22 12 -10 1 -7 -4 7 -17 12 -10 20 -21 17 -24
-3 -2 9 -3 26 -2 16 1 30 -1 30 -5 0 -33 -535 -49 -710 -22 -413 65 -799 238
-1095 492 -121 104 -272 265 -369 395 -197 259 -345 649 -385 1007 -31 274 6
669 85 919 35 110 109 293 146 359 83 150 267 388 288 375 4 -3 11 -26 15 -52z
m2991 -512 c-9 -16 -12 -31 -9 -35 4 -3 1 -6 -5 -6 -7 0 -12 -4 -12 -10 0 -5
-8 -19 -17 -29 -17 -21 -26 -51 -15 -49 13 2 42 -14 42 -24 0 -5 -4 -7 -8 -4
-5 3 -9 -1 -9 -9 0 -8 5 -13 11 -12 6 1 11 -6 11 -15 0 -9 4 -20 8 -25 5 -4 8
-3 7 2 -5 23 1 34 15 29 11 -5 13 -2 9 10 -5 14 -9 14 -22 4 -13 -11 -14 -11
-7 1 6 10 4 12 -6 6 -12 -7 -12 -6 -1 7 10 13 9 18 -4 29 -10 8 -19 13 -22 11
-3 -1 -7 5 -8 14 -2 13 2 12 20 -5 12 -12 26 -18 30 -14 4 5 6 3 5 -2 -2 -5 5
-23 15 -38 18 -27 18 -28 0 -41 -17 -13 -15 -14 14 -11 31 2 32 2 17 -15 -18
-19 -4 -23 23 -6 11 7 11 4 1 -12 -7 -12 -16 -19 -20 -16 -13 8 -22 -17 -10
-29 9 -9 10 -8 5 7 -6 16 -5 17 14 7 12 -7 22 -14 22 -17 0 -3 -5 -2 -12 2 -7
4 -8 3 -4 -4 4 -7 4 -18 -1 -24 -11 -18 -13 -39 -3 -33 11 7 31 -20 22 -30 -4
-5 -1 -5 6 -1 7 4 15 1 18 -8 3 -8 12 -12 20 -9 8 3 11 10 7 16 -3 5 -2 7 4 4
5 -4 9 -19 8 -34 -1 -15 2 -33 7 -40 6 -7 5 -20 -2 -33 -13 -24 -4 -44 17 -36
11 4 13 2 10 -9 -4 -8 -2 -17 3 -20 6 -4 10 -11 10 -16 0 -6 -4 -7 -10 -4 -6
3 -7 -1 -4 -9 12 -31 -16 -15 -73 42 -103 101 -326 281 -351 282 -4 0 -15 6
-24 14 -15 11 -8 20 67 79 46 37 110 97 141 132 32 36 59 65 61 65 2 0 -3 -13
-11 -29z m80 -173 c3 -4 -1 -5 -10 -4 -8 1 -18 5 -22 8 -3 4 1 5 10 4 8 -1 18
-5 22 -8z m34 -94 c0 -8 -19 -13 -24 -6 -3 5 1 9 9 9 8 0 15 -2 15 -3z m7 -38
c0 -8 -5 -14 -11 -13 -5 1 -11 -7 -13 -18 -3 -15 -2 -16 5 -7 7 11 11 10 17
-5 17 -39 12 -44 -16 -17 l-29 28 22 23 c25 27 25 27 25 9z m63 -196 c0 -5 -5
-10 -11 -10 -5 0 -7 5 -4 10 3 6 8 10 11 10 2 0 4 -4 4 -10z m44 -75 c-4 -8
-10 -15 -15 -15 -4 0 -6 7 -3 15 4 8 10 15 15 15 4 0 6 -7 3 -15z m-2809 -35
c-3 -5 -12 -10 -18 -10 -7 0 -6 4 3 10 19 12 23 12 15 0z m2829 -25 c11 -8 16
-15 12 -15 -5 0 -5 -6 0 -13 5 -7 2 -5 -7 5 -9 9 -20 14 -24 10 -5 -4 -5 -2
-2 5 4 6 1 14 -5 16 -7 3 -8 6 -3 6 6 0 19 -6 29 -14z m-3045 -212 c4 -3 -28
2 -47 6 -2 1 0 6 3 11 5 8 12 7 23 -2 10 -7 19 -14 21 -15z m202 -1191 c-7 -2
-18 1 -23 6 -8 8 -4 9 13 5 13 -4 18 -8 10 -11z m44 -30 c-1 -9 5 -26 14 -37
15 -18 15 -19 -1 -7 -11 9 -18 10 -23 2 -11 -17 -24 -1 -19 23 3 12 6 27 6 34
1 6 7 9 14 6 6 -2 11 -12 9 -21z m-35 9 c0 -6 -4 -12 -8 -15 -5 -3 -9 1 -9 9
0 8 4 15 9 15 4 0 8 -4 8 -9z m116 -238 c-2 -9 -13 -17 -26 -18 -22 -2 -22 -1
-5 12 11 7 15 13 11 13 -4 0 -4 5 -1 10 9 15 24 3 21 -17z m100 -112 c0 -11
-4 -17 -8 -15 -4 3 -8 0 -8 -6 0 -6 7 -13 15 -16 8 -4 12 -10 9 -16 -3 -5 -12
-1 -20 9 -7 10 -14 14 -14 8 0 -5 -5 -3 -10 5 -8 13 4 30 35 50 1 0 1 -9 1
-19z m234 -237 c0 -9 6 -14 13 -11 6 2 11 10 9 16 -1 7 2 10 7 7 5 -3 8 -14 7
-23 -2 -10 9 -24 28 -34 16 -8 31 -21 32 -28 1 -6 0 -7 -3 -1 -2 5 -11 10 -19
10 -8 0 -14 5 -14 11 0 6 -9 9 -19 6 -12 -3 -27 3 -37 15 -20 21 -27 48 -13
48 5 0 9 -7 9 -16z m165 -66 c5 4 5 1 1 -6 -6 -10 -11 -10 -22 -1 -8 6 -14 14
-14 16 0 3 6 0 13 -6 8 -6 18 -7 22 -3z m301 -110 c4 -6 3 -8 -3 -5 -12 7 -44
-28 -35 -39 4 -4 1 -4 -6 0 -9 6 -10 11 -3 20 6 7 7 17 3 21 -4 5 -2 5 5 1 6
-3 14 -2 18 4 8 13 12 13 21 -2z m822 -41 c-6 -7 24 -37 33 -32 4 3 6 -5 4
-17 -4 -22 -4 -22 10 -4 11 14 12 23 4 33 -6 7 -15 11 -18 8 -4 -2 -8 2 -8 10
0 12 4 12 20 -2 10 -10 33 -18 50 -18 31 0 52 -24 23 -26 -9 -1 -22 -2 -28 -3
-7 -1 -12 5 -10 12 1 8 -2 11 -7 7 -6 -3 -8 -12 -4 -20 3 -8 3 -15 0 -15 -3 0
-41 -7 -86 -15 -45 -9 -86 -13 -91 -10 -6 4 -2 18 10 35 22 31 26 45 8 34 -7
-5 -8 -3 -3 6 6 10 11 9 21 -4 14 -20 8 -49 -9 -39 -5 3 -7 1 -4 -5 12 -17 42
-7 39 14 -3 15 -1 16 12 5 13 -11 15 -10 11 11 -5 22 -3 21 18 -6 18 -22 26
-26 32 -16 6 9 4 11 -5 5 -9 -6 -11 -4 -5 5 5 9 4 11 -4 6 -6 -4 -11 -4 -10 1
1 4 0 10 -1 13 -5 14 -8 41 -3 37 2 -3 3 -7 1 -10z m232 -3 c0 -6 -65 -34 -81
-34 -19 0 -1 13 22 17 12 2 29 8 38 13 19 11 21 12 21 4z m-704 -30 c1 -9 0
-13 -4 -10 -3 4 -7 14 -8 22 -1 9 0 13 4 10 3 -4 7 -14 8 -22z m206 -17 c14 2
29 -1 33 -7 4 -6 1 -9 -7 -8 -7 2 -12 -4 -10 -12 2 -8 0 -12 -4 -8 -4 4 -14 2
-23 -4 -9 -7 -13 -8 -8 -3 4 4 -3 20 -15 34 -13 14 -16 21 -8 15 8 -6 27 -10
42 -7z m-335 -12 c0 -8 -4 -12 -9 -9 -5 3 -6 10 -3 15 9 13 12 11 12 -6z"/>
<path d="M1834 2807 c-8 -21 2 -35 16 -21 5 5 6 15 0 24 -8 12 -10 12 -16 -3z"/>
<path d="M1768 2768 c-3 -7 -1 -24 3 -38 6 -22 7 -20 8 13 1 38 -3 47 -11 25z"/>
<path d="M1673 2714 c0 -7 4 -11 8 -8 4 2 9 -4 11 -13 3 -16 4 -16 10 -2 3 9
-1 20 -11 26 -14 9 -18 8 -18 -3z"/>
<path d="M1581 2637 c-8 -10 -7 -14 2 -14 8 0 14 6 14 14 0 7 -1 13 -2 13 -2
0 -8 -6 -14 -13z"/>
<path d="M3425 1210 c-4 -6 -11 -7 -17 -4 -6 4 -8 2 -5 -4 9 -13 40 -9 45 6 5
15 -14 16 -23 2z"/>
<path d="M1712 1183 c-10 -4 -9 -8 5 -19 10 -7 23 -13 28 -13 6 0 2 4 -8 10
-9 6 -15 14 -12 20 7 10 6 10 -13 2z"/>
<path d="M1759 1158 c11 -11 19 -24 16 -27 -2 -4 0 -13 6 -21 6 -11 9 -11 10
-2 1 6 2 18 3 25 1 6 -8 20 -20 30 -31 24 -39 21 -15 -5z"/>
<path d="M1824 1148 c-4 -7 -4 -10 1 -6 4 4 15 2 24 -5 14 -11 14 -10 2 6 -16
20 -18 21 -27 5z"/>
<path d="M3476 1122 c-3 -5 1 -9 9 -9 8 0 12 4 9 9 -3 4 -7 8 -9 8 -2 0 -6 -4
-9 -8z"/>
<path d="M1845 1050 c3 -5 8 -10 11 -10 2 0 4 5 4 10 0 6 -5 10 -11 10 -5 0
-7 -4 -4 -10z"/>
<path d="M1920 890 c-13 -8 -12 -10 3 -10 9 0 17 5 17 10 0 12 -1 12 -20 0z"/>
<path d="M1990 860 c0 -6 7 -10 15 -10 8 0 15 2 15 4 0 2 -7 6 -15 10 -8 3
-15 1 -15 -4z"/>
<path d="M1965 840 c-8 -13 9 -20 24 -11 10 6 9 10 -3 14 -8 3 -18 2 -21 -3z"/>
<path d="M1980 806 c0 -2 8 -10 18 -17 15 -13 16 -12 3 4 -13 16 -21 21 -21
13z"/>
<path d="M2019 723 c-13 -16 -12 -17 4 -4 9 7 17 15 17 17 0 8 -8 3 -21 -13z"/>
<path d="M2199 623 c-13 -16 -12 -17 4 -4 16 13 21 21 13 21 -2 0 -10 -8 -17
-17z"/>
<path d="M2268 633 c6 -2 18 -2 25 0 6 3 1 5 -13 5 -14 0 -19 -2 -12 -5z"/>
<path d="M2490 591 c0 -6 4 -13 10 -16 6 -3 7 1 4 9 -7 18 -14 21 -14 7z"/>
<path d="M2363 575 c0 -8 4 -12 8 -9 4 2 10 -2 12 -8 4 -8 6 -9 6 -2 1 6 -5
17 -12 23 -10 8 -14 7 -14 -4z"/>
<path d="M2407 569 c7 -9 11 -18 8 -21 -3 -2 1 -5 8 -5 8 0 14 6 14 14 0 7 -3
11 -5 8 -3 -3 -12 1 -21 8 -14 10 -14 10 -4 -4z"/>
<path d="M2491 526 c-9 -11 -9 -16 1 -22 7 -4 10 -4 6 1 -4 4 -3 14 3 22 6 7
9 13 6 13 -2 0 -10 -6 -16 -14z"/>
<path d="M2710 486 c0 -2 8 -10 18 -17 15 -13 16 -12 3 4 -13 16 -21 21 -21
13z"/>
<path d="M2880 469 c0 -4 5 -11 10 -14 6 -4 7 -11 4 -17 -4 -6 -2 -8 4 -4 15
9 11 43 -5 43 -7 0 -13 -4 -13 -8z"/>
<path d="M3053 473 c4 -6 1 -15 -6 -20 -17 -13 -43 -10 -39 5 3 16 -3 15 -18
-4 -8 -8 -9 -14 -4 -13 5 1 11 0 14 -1 23 -8 41 -5 55 10 12 14 13 20 4 26 -7
4 -10 3 -6 -3z"/>
<path d="M3103 425 c0 -8 4 -12 9 -9 5 3 6 10 3 15 -9 13 -12 11 -12 -6z"/>
<path d="M4306 3122 c-3 -5 1 -9 9 -9 8 0 12 4 9 9 -3 4 -7 8 -9 8 -2 0 -6 -4
-9 -8z"/>
<path d="M4445 2971 c-3 -5 -2 -12 3 -15 5 -3 9 1 9 9 0 17 -3 19 -12 6z"/>
<path d="M4446 2932 c-3 -6 -1 -14 5 -17 15 -10 25 3 12 16 -7 7 -13 7 -17 1z"/>
<path d="M1739 1318 c-5 -18 -6 -38 -1 -34 7 8 12 36 6 36 -2 0 -4 -1 -5 -2z"/>
<path d="M2185 721 c-3 -5 -2 -12 3 -15 5 -3 9 1 9 9 0 17 -3 19 -12 6z"/>
<path d="M3176 458 c3 -5 10 -6 15 -3 13 9 11 12 -6 12 -8 0 -12 -4 -9 -9z"/>
</g>
</svg>
